# xmcd CD database file
#
# Track frame offsets:
#	150
#	21757
#	35450
#	50737
#	68877
#	80332
#	97312
#	112927
#	125100
#	137817
#	150687
#	165470
#
# Disc length: 2424 seconds
#
# Revision: 0
# Processed by: cddbd v1.5.1PL0 Copyright (c) Steve Scherf et al.
# Submitted via: CDex 1.51
#
DISCID=a309760c
DTITLE=りんけんバンド - 一つ星
DYEAR=1996
DGENRE=JPop
TTITLE0=ハタスガシー
TTITLE1=一つ星
TTITLE2=さきよだぬ神謡
TTITLE3=タッタウェーキ
TTITLE4=星ぬ花
TTITLE5=我ったータンメー
TTITLE6=じるましが
TTITLE7=語いたや
TTITLE8=やふぁ風
TTITLE9=十五夜
TTITLE10=東り立ち雲
TTITLE11=一つ星（オーケストラ・ヴァージョン）
EXTD=YEAR: 1996
EXTT0=
EXTT1=
EXTT2=
EXTT3=
EXTT4=
EXTT5=
EXTT6=
EXTT7=
EXTT8=
EXTT9=
EXTT10=
EXTT11=
PLAYORDER=
